PathFileType	4	(X/Y/Z)	8_coords_data.trc
DataRate	CameraRate	NumFrames	NumMarkers	Units	OrigDataRate	OrigDataStartFrame	OrigNumFrames
30.0	30.0	9	21	m	30.0	45	55
Frame#	Time	THUMB_TIP	THUMB_IP	THUMB_MCP	THUMB_CMC	INDEX_TIP	INDEX_DIP	INDEX_PIP	INDEX_MCP	MIDDLE_TIP	MIDDLE_DIP	MIDDLE_PIP	MIDDLE_MCP	RING_TIP	RING_DIP	RING_PIP	RING_MCP	PINKY_TIP	PINKY_DIP	PINKY_PIP	PINKY_MCP	WRIST
X1	Y1	Z1	X2	Y2	Z2	X3	Y3	Z3	X4	Y4	Z4	X5	Y5	Z5	X6	Y6	Z6	X7	Y7	Z7	X8	Y8	Z8	X9	Y9	Z9	X10	Y10	Z10	X11	Y11	Z11	X12	Y12	Z12	X13	Y13	Z13	X14	Y14	Z14	X15	Y15	Z15	X16	Y16	Z16	X17	Y17	Z17	X18	Y18	Z18	X19	Y19	Z19	X20	Y20	Z20	X21	Y21	Z21
44	1.4666666666666666	0.004442619800567627	-0.09221389770507812	1.03622998046875	-0.001993299961090088	-0.0688551025390625	1.0460999755859375	-0.012740400314331055	-0.04630160140991211	1.057530029296875	-0.020585899353027345	-0.01627949905395508	1.066010009765625	0.013327699661254883	-0.05724869918823242	0.9420390014648438	0.005034780025482178	-0.05171089935302734	0.9615150146484375	-0.003894490003585815	-0.04567900085449219	0.9809500122070313	-0.010256699562072754	-0.03298870086669922	1.015510009765625	0.020349800109863283	-0.01976810073852539	0.92452099609375	0.011436400413513183	-0.018905799865722658	0.9472680053710938	-0.001351079940795898	-0.01710740089416504	0.9717520141601562	-0.01261079978942871	-0.013010199546813966	1.0079099731445313	0.0177278995513916	0.006661330223083496	0.9319879760742188	0.008127090454101562	0.006838210105895996	0.9534459838867188	-0.003146209955215454	0.006613709926605225	0.97627001953125	-0.010917599678039552	0.005946450233459473	1.0098900146484375	0.01649090003967285	0.04657580184936523	0.9627999877929687	0.008480090141296387	0.03951919937133789	0.9798170166015625	0.0010211600065231322	0.032867801666259765	0.9939520263671875	-0.00777308988571167	0.02245240020751953	1.01625	-0.04919660186767578	0.010806699752807618	1.072199951171875
45	1.5	0.004038090229034424	-0.09137039947509766	1.0338699951171875	-0.00252701997756958	-0.068331298828125	1.0449300537109374	-0.01304319953918457	-0.04636349868774414	1.0573299560546876	-0.02020770072937012	-0.016592300415039063	1.0661700439453126	0.017058900833129883	-0.05631629943847656	0.9432540283203125	0.00767540979385376	-0.05132939910888672	0.962323974609375	-0.002441689968109131	-0.04581940078735352	0.98127001953125	-0.011271300315856934	-0.03377069854736328	1.0154000244140624	0.020223800659179687	-0.021209199905395507	0.9249650268554688	0.011192000389099122	-0.02014039993286133	0.9476320190429688	-0.001793040037155151	-0.017985000610351562	0.9720040283203125	-0.013184000015258789	-0.01359280014038086	1.0078300170898438	0.02028860092163086	0.005513400077819824	0.9332930297851563	0.009779749870300293	0.005926690101623535	0.9542760009765625	-0.0023856201171875	0.005935400009155273	0.97660302734375	-0.01090750026702881	0.005300710201263428	1.0099400024414062	0.020482200622558594	0.04376649856567383	0.9637169799804688	0.011284899711608887	0.03734389877319336	0.9804119873046875	0.002794680118560791	0.03126189994812012	0.9944979858398437	-0.00727269983291626	0.02169599914550781	1.0165800170898438	-0.04848720169067383	0.010956100463867188	1.07275
46	1.5333333333333334	0.00420359992980957	-0.09000589752197266	1.0313199462890625	-0.002928090095520019	-0.06787220001220703	1.0433699951171875	-0.013499500274658204	-0.0464015007019043	1.0567099609375	-0.02039940071105957	-0.01666150093078613	1.0661500244140625	0.015796799659729004	-0.056392799377441405	0.942947021484375	0.00617402982711792	-0.051585399627685546	0.9619530029296876	-0.004187550067901611	-0.0462318000793457	0.9808880004882813	-0.013198800086975097	-0.03440999984741211	1.015010009765625	0.019002599716186522	-0.023073799133300783	0.9248109741210937	0.009691519737243652	-0.021621299743652345	0.9474769897460937	-0.0035302801132202147	-0.018992500305175783	0.9716749877929688	-0.014799799919128418	-0.014203399658203124	1.007260009765625	0.02217219924926758	0.004154300212860108	0.9342119750976563	0.01054889965057373	0.004851840019226074	0.95456298828125	-0.002552320003509521	0.005227869987487793	0.9763560180664063	-0.011708399772644044	0.004769229888916015	1.0093200073242188	0.02557819938659668	0.04182289886474609	0.9661110229492188	0.014634499549865723	0.03587070083618164	0.9818090209960938	0.00477623987197876	0.030175399780273438	0.995072998046875	-0.007416520118713379	0.021027200698852538	1.0162000122070312	-0.04768730163574219	0.01119480037689209	1.072949951171875
47	1.5666666666666667	0.005452320098876953	-0.08767019653320313	1.027739990234375	-0.003018100023269653	-0.06688310241699219	1.04122998046875	-0.013965999603271485	-0.04659420013427734	1.0553699951171875	-0.020711299896240234	-0.017005599975585938	1.0654599609375	0.014086600303649902	-0.054937400817871095	0.9416710205078125	0.004314169883728027	-0.05059859848022461	0.9607620239257812	-0.00625314998626709	-0.04567340087890625	0.9797830200195312	-0.01563770008087158	-0.034783599853515625	1.0141599731445312	0.019061100006103514	-0.023664199829101562	0.9251279907226563	0.008999360084533692	-0.022072900772094728	0.9472760009765625	-0.004972010135650635	-0.019252099990844727	0.9709710083007812	-0.01669099998474121	-0.014422300338745118	1.00675	0.02555929946899414	0.002973180055618286	0.9362160034179687	0.012488900184631347	0.004061759948730469	0.9553800048828125	-0.002179899930953979	0.004842949867248535	0.976301025390625	-0.012810799598693847	0.004423860073089599	1.0088599853515625	0.02950699996948242	0.039001998901367185	0.968072998046875	0.017162900924682617	0.03385649871826172	0.9829459838867187	0.006046720027923584	0.028756200790405275	0.9955830078125	-0.007652050018310547	0.020444000244140625	1.01602001953125	-0.04731399917602539	0.011244500160217285	1.07293994140625
48	1.6	0.005758180141448975	-0.08542710113525391	1.0243599853515626	-0.003479340076446533	-0.06591300201416016	1.0391500244140626	-0.01447029972076416	-0.046422401428222654	1.054239990234375	-0.021089500427246093	-0.017106599807739258	1.0648699951171876	0.013229599952697754	-0.052311599731445314	0.9401370239257812	0.0034407598972320554	-0.04863219833374023	0.9593579711914062	-0.00716526985168457	-0.04434339904785156	0.9784439697265624	-0.017082700729370116	-0.03450590133666992	1.0131300048828125	0.018482200622558592	-0.022575300216674806	0.924719970703125	0.008175239562988282	-0.02120680046081543	0.9465789794921875	-0.006053510189056395	-0.01855069923400879	0.970125	-0.01796139907836914	-0.014083800315856933	1.005969970703125	0.02558799934387207	0.003347369909286499	0.9364500122070313	0.012176600456237793	0.004498610019683838	0.9552570190429688	-0.002885289907455444	0.005299230098724365	0.975791015625	-0.013720399856567382	0.004631909847259521	1.008239990234375	0.02984720039367676	0.03825970077514648	0.9682269897460938	0.017226800918579102	0.03333810043334961	0.9829359741210938	0.005880720138549804	0.028516000747680664	0.99547900390625	-0.008202919960021973	0.020496200561523438	1.0156799926757814	-0.047257999420166015	0.011180700302124024	1.07281005859375
49	1.6333333333333333	0.0049660100936889644	-0.08524620056152343	1.0238300170898438	-0.004285109996795654	-0.06591429901123047	1.0388699951171876	-0.01497029972076416	-0.046417499542236326	1.053969970703125	-0.02146120071411133	-0.01703860092163086	1.0646500244140624	0.012242799758911132	-0.05196910095214844	0.9396290283203125	0.002587709903717041	-0.048347599029541014	0.9589450073242187	-0.007967299938201904	-0.04411370086669922	0.9781690063476562	-0.017765600204467772	-0.03435660171508789	1.0128699951171876	0.01801759910583496	-0.022422500610351562	0.924468994140625	0.007629129886627197	-0.020999399185180664	0.9462730102539062	-0.006685369968414306	-0.018374799728393554	0.9697520141601562	-0.01859429931640625	-0.013950499534606933	1.0056400146484374	0.025173999786376952	0.003787090063095092	0.936218994140625	0.01170419979095459	0.004928699970245361	0.954989990234375	-0.003456160068511963	0.005670539855957031	0.975510986328125	-0.014202699661254883	0.004820240020751953	1.0078699951171874	0.030338300704956054	0.03907360076904297	0.9689810180664062	0.017457599639892577	0.03391749954223633	0.9833930053710938	0.0058534698486328125	0.028918899536132813	0.99556298828125	-0.008529840469360351	0.02060449981689453	1.0153400268554686	-0.04743470001220703	0.011436599731445313	1.0726800537109376
50	1.6666666666666667	0.0048284602165222165	-0.08521669769287109	1.0241500244140624	-0.004624229907989502	-0.0659801025390625	1.0391800537109375	-0.015468600273132325	-0.04642359924316406	1.05427001953125	-0.021664499282836914	-0.01702280044555664	1.06481005859375	0.012175299644470216	-0.05229819869995117	0.9399180297851563	0.002468339920043945	-0.048605098724365234	0.9592329711914063	-0.008057390213012695	-0.04429740142822266	0.9783670043945313	-0.0180039005279541	-0.034450000762939456	1.01297998046875	0.01921310043334961	-0.02281949996948242	0.9252360229492187	0.008376669883728028	-0.02133340072631836	0.9468770141601562	-0.006313549995422363	-0.01860190010070801	0.9701220092773437	-0.018660200119018554	-0.014023699760437013	1.0057899780273438	0.02645359992980957	0.003280469894409179	0.937155029296875	0.012567600250244141	0.004541029930114746	0.9556129760742188	-0.002919440031051635	0.005419839859008789	0.9758389892578125	-0.014259599685668945	0.004742579936981201	1.008010009765625	0.030798099517822267	0.03869309997558594	0.9694990234375	0.017738800048828125	0.03370009994506836	0.9836859741210937	0.0059882597923278805	0.02877549934387207	0.9957999877929687	-0.008612879753112793	0.02055500030517578	1.015489990234375	-0.04755950164794922	0.011429499626159668	1.07275
51	1.7	0.005468130111694336	-0.08497679901123047	1.024550048828125	-0.004163539886474609	-0.06593289947509766	1.0396600341796876	-0.01506599998474121	-0.046497100830078124	1.0546500244140624	-0.021393100738525392	-0.017092899322509767	1.065219970703125	0.012224499702453612	-0.051884998321533204	0.9401820068359374	0.002554320096969604	-0.04833359909057617	0.95952001953125	-0.007950079917907716	-0.044198600769042966	0.9787069702148438	-0.017863000869750977	-0.03456219863891601	1.0134099731445312	0.019104400634765626	-0.02292989921569824	0.9255800170898437	0.008314959526062012	-0.021448200225830077	0.94718701171875	-0.006393199920654297	-0.018706100463867188	0.970489990234375	-0.018714199066162108	-0.014131500244140624	1.006280029296875	0.026311399459838868	0.003131969928741455	0.9374359741210937	0.01246679973602295	0.004402289867401123	0.9558729858398437	-0.002978140115737915	0.005258080005645752	0.9760800170898437	-0.014355199813842773	0.004620689868927002	1.00847998046875	0.030245899200439453	0.0377130012512207	0.9689149780273437	0.017305700302124024	0.03296500015258789	0.9833839721679688	0.005710490226745605	0.02828219985961914	0.99572900390625	-0.008690540313720702	0.02046389961242676	1.0158099975585937	-0.047437400817871095	0.011353500366210937	1.07327001953125
52	1.7333333333333334	0.005427450180053711	-0.08519499969482422	1.0253399658203124	-0.0043540802001953115	-0.06624659729003907	1.040489990234375	-0.015205400466918945	-0.046723800659179686	1.0553900146484374	-0.02134189987182617	-0.017320499420166016	1.06568994140625	0.012097200393676759	-0.05268050003051758	0.9408270263671875	0.0024131300449371338	-0.04898260116577149	0.9601270141601562	-0.0081496000289917	-0.04475579833984375	0.9792260131835937	-0.017968399047851562	-0.03486880111694336	1.01397998046875	0.01939579963684082	-0.02379450035095215	0.926260009765625	0.008413920402526856	-0.022147600173950194	0.9477830200195313	-0.006434800148010254	-0.019263900756835938	0.971	-0.018620399475097655	-0.014465200424194335	1.006739990234375	0.026817300796508788	0.002404099941253662	0.9381599731445313	0.012830699920654297	0.003818900108337402	0.956416015625	-0.002815700054168701	0.004799079895019531	0.9765679931640625	-0.014218700408935548	0.004272409915924072	1.0088599853515625	0.030584600448608397	0.03713859939575195	0.969405029296875	0.01758620071411133	0.03246310043334961	0.9837839965820312	0.005947559833526611	0.027875600814819337	0.9960999755859375	-0.008472359657287598	0.020163999557495118	1.0161300048828126	-0.04732260131835937	0.011287799835205078	1.073780029296875
